# xmcd
#
# Track frame offsets:
# 183
# 17833
# 29905
# 41758
# 52895
# 69423
# 93778
# 105288
# 137865
# 161628
# 171545
# 182488
# 204648
# 239640
# 250695
# 282960
# 299705
# 311103
#
# Disc length: 4256 seconds
#
#
# Revision: 2
# Processed by: cddbd v1.4PL0 Copyright (c) Steve Scherf et al.
# Submitted via: FreeRIP 2.12 
#
DISCID=0f109e12
DTITLE=JEAN-PIERRE RAMPAL - PORTRAIT OF RAMPAL
DYEAR=1900
DGENRE=
TTITLE0=VIVALDI CONCERTO FLUTE and STRINGS OP.10
TTITLE1=VIVALDI CONCERTO FLUTE and STRINGS OP.10
TTITLE2=VIVALDI CONCERTO FLUTE and STRINGS OP.10
TTITLE3=BACH CONCERTO FLUTE and CONTINUO BWV 1056
TTITLE4=BACH CONCERTO FLUTE and CONTINUO BWV 1056
TTITLE5=TELEMAN AIR A L'ITALIEN
TTITLE6=TELEMAN POLONAISE
TTITLE7=GULCK DANSE DES ESPRITS BIENHEUREUX
TTITLE8=MOZART RONDO FLUTE and ORCHESTRA  K. ANH 184
TTITLE9=BACH SONATE SICILIANO
TTITLE10=GOSSEC GAVOTTE
TTITLE11=JOPLIN THE ENTERTAINER A RAGTIME 2-STEP
TTITLE12=BOLLING SENTIMENTALE
TTITLE13=GERSHWIN LIZA
TTITLE14=SAKURA LILY LASKINE
TTITLE15=HAYDN TRIO NO. 1 ALLEGRO MODERATO
TTITLE16=HAYDN TRIO NO. 1 ANDANTE
TTITLE17=HAYDN TRIO NO. 1 FINAL
EXTD=
EXTT0=
EXTT1=
EXTT2=
EXTT3=
EXTT4=
EXTT5=
EXTT6=
EXTT7=
EXTT8=
EXTT9=
EXTT10=
EXTT11=
EXTT12=
EXTT13=
EXTT14=
EXTT15=
EXTT16=
EXTT17=
PLAYORDER=
